<?xml version="1.0" encoding="UTF-8"?>
<svg id="Layer_2" data-name="Layer 2" xmlns="http://www.w3.org/2000/svg" viewBox="0 0 90 90">
  <defs>
    <style>
      .cls-1 {
        fill: #2e294e;
        stroke-width: 0px;
      }
    </style>
  </defs>
  <g id="Layer_1-2" data-name="Layer 1">
    <path class="cls-1" d="m79,0H11C4.9,0,0,4.6,0,10.3v51.7c0,5.7,4.9,10.3,11,10.3h7.2v15.3c0,.9.6,1.8,1.5,2.2.4.2.7.2,1.1.2.6,0,1.2-.2,1.7-.5l22.7-17.2h33.8c6.1,0,11-4.6,11-10.3V10.3c0-5.7-4.9-10.3-11-10.3Zm-36.9,50.5h-22.1v-29.2h21.4v5.2h-15.4v6.2h14.2v5.1h-14.2v7.5h16.2v5.2h-.1Zm28.4,0h-6.1l-11.9-20.7v20.7h-5.7v-29.2h6.4l11.6,20.4v-20.4h5.7v29.2Z"/>
  </g>
</svg>