<?xml version="1.0" encoding="UTF-8"?>
<svg id="Layer_2" data-name="Layer 2" xmlns="http://www.w3.org/2000/svg" viewBox="0 0 90 90">
  <defs>
    <style>
      .cls-1 {
        fill: #2e294e;
        stroke-width: 0px;
      }
    </style>
  </defs>
  <g id="Layer_1-2" data-name="Layer 1">
    <g>
      <path class="cls-1" d="m61.4,26.9c-.6-.3-1.6-.5-2.8-.5h-6.7v7.8h6.6c1.3,0,2.3-.2,2.9-.5,1.2-.6,1.7-1.7,1.7-3.3,0-1.7-.6-2.9-1.7-3.5Z"/>
      <path class="cls-1" d="m79,0H11C4.9,0,0,4.6,0,10.3v51.7c0,5.7,4.9,10.3,11,10.3h7.2v15.3c0,.9.6,1.8,1.5,2.2.4.2.7.2,1.1.2.6,0,1.2-.2,1.7-.5l22.7-17.2h33.8c6.1,0,11-4.6,11-10.3V10.3c0-5.7-4.9-10.3-11-10.3Zm-37.2,26.5h-14.8v6.7h13v5.1h-13v12.2h-6v-29.2h20.8v5.2Zm27.9,24h-6.7c-.2-.6-.3-1.2-.4-1.6-.2-.8-.2-1.7-.3-2.5v-2.7c0-1.9-.3-3.1-1-3.7-.6-.6-1.8-.9-3.5-.9h-6v11.4h-6v-29.2h14c2,0,3.5.3,4.6.8s2,1.1,2.7,2c.6.7,1.1,1.6,1.5,2.5.4.9.5,1.9.5,3.1,0,1.4-.4,2.8-1,4.1-.7,1.3-1.9,2.3-3.5,2.8,1.3.5,2.3,1.3,2.9,2.3s.8,2.5.8,4.6v2c0,1.3.1,2.2.2,2.7.2.8.5,1.3,1.1,1.7v.6h.1Z"/>
    </g>
  </g>
</svg>