<?xml version="1.0" encoding="UTF-8"?>
<svg id="Layer_2" data-name="Layer 2" xmlns="http://www.w3.org/2000/svg" viewBox="0 0 48 48">
  <defs>
    <style>
      .cls-1 {
        fill: #6e44ff;
        stroke-width: 0px;
      }
    </style>
  </defs>
  <g id="Layer_1-2" data-name="Layer 1">
    <path class="cls-1" d="m24,0C10.77,0,0,10.77,0,24s10.77,24,24,24,24-10.77,24-24S37.23,0,24,0Zm0,11c3.87,0,7,3.13,7,7s-3.13,7-7,7-7-3.13-7-7,3.13-7,7-7Zm13.05,28.06c-3.48,3.08-8.05,4.94-13.05,4.94s-9.58-1.87-13.05-4.94c-.77-.68-1.05-1.79-.67-2.74,2.17-5.45,7.49-9.31,13.72-9.31s11.56,3.86,13.72,9.31c.38.96.1,2.06-.67,2.74h0Z"/>
  </g>
</svg>