<?xml version="1.0" encoding="UTF-8"?>
<svg id="Layer_2" data-name="Layer 2" xmlns="http://www.w3.org/2000/svg" viewBox="0 0 315.75 219.37">
  <defs>
    <style>
      .cls-1, .cls-2, .cls-3, .cls-4 {
        stroke-width: 0px;
      }

      .cls-1, .cls-2, .cls-4 {
        fill-rule: evenodd;
      }

      .cls-5 {
        fill: none;
      }

      .cls-5, .cls-6 {
        stroke: #2e294e;
        stroke-miterlimit: 10;
        stroke-width: .75px;
      }

      .cls-7 {
        stroke: #6e44ff;
        stroke-linecap: round;
        stroke-linejoin: round;
        stroke-width: 2px;
      }

      .cls-7, .cls-2, .cls-3 {
        fill: #6e44ff;
      }

      .cls-6, .cls-4 {
        fill: #2e294e;
      }
    </style>
  </defs>
  <g id="Layer_1-2" data-name="Layer 1">
    <g>
      <g>
        <g>
          <g>
            <g>
              <path class="cls-6" d="m95.15,68.93c-1.5-.89-3.26-1.4-5.12-1.4-.61,0-1.2.05-1.78.17-.02-.01-.04,0-.05,0-.95.16-1.86.48-2.7.9-.01,0-.03.01-.05.02-2.52,1.3-4.41,3.62-5.14,6.41h0c-.22.82-.33,1.66-.33,2.54,0,5.55,4.52,10.05,10.05,10.05s10.05-4.5,10.05-10.05c0-3.68-1.98-6.89-4.93-8.65Zm-5.12,15.82c-3.94,0-7.14-3.2-7.14-7.14,0-2.85,1.67-5.31,4.09-6.45.52-.25,1.07-.44,1.65-.54.04,0,.07-.01.1-.02.42-.09.86-.13,1.3-.13,3.94,0,7.14,3.2,7.14,7.14s-3.2,7.14-7.14,7.14Z"/>
              <g>
                <g>
                  <path class="cls-6" d="m38.88,50.43c-.11.08-.22.17-.33.26v-.42l.33.16Z"/>
                  <path class="cls-6" d="m59.63,83.28c-.2.24-.5.33-.79.33-.44,0-.88-.21-1.18-.62-.23-.33-.46-.64-.69-.95-2.31-3.09-4.58-5.38-6.7-7.06-2.62-2.1-4.99-3.27-6.86-3.93-.38-.17-.62-.23-.88-.32-.18-.06-.33-.12-.47-.12-.56-.17-.89-.26-1.18-.32-1.85-.37-3.66-.85-5.4-1.37,1.49-.89,3.22-1.39,5.08-1.39.74,0,1.46.08,2.15.23.03,0,.06,0,.09.03h.02c.13.03.27.06.41.1.06.02.12.03.18.05.39.12.77.26,1.14.42,3.56,1.24,9.05,4.36,14.59,11.74.29.37.57.76.85,1.15.47.65.32,1.56-.36,2.03Z"/>
                  <path class="cls-6" d="m64.91,81.05c-.54-.1-1-.5-1.16-1.06-.07-.26-.23-.81-.51-1.59.37-.08.74-.13,1.13-.16-.17.52-.27.89-.33,1.1-.19.71.2,1.44.87,1.71Z"/>
                </g>
                <g>
                  <path class="cls-6" d="m92.59,50.09c2.85-1.42,5.47-3.13,7.84-5.11.47-.39.93-.78,1.38-1.17v1.34l-2.81,4.52h0c-2.38,1.64-4.94,3.03-7.67,4.19-.06.03-.12.05-.18.08-5.73,2.49-10.17,5.69-13.59,9h0c-6.23,6.03-9.07,12.41-10.16,15.46-.38-.08-.75-.13-1.14-.16.15.47.25.82.3,1.01.21.77-.23,1.56-1.03,1.77-.2.05-.4.06-.59.03t0,0c-.67-.27-1.06-1-.87-1.71.06-.21.16-.58.33-1.1-.39.03-.76.08-1.13.16-1.07-3.04-3.94-9.57-10.35-15.71h-.01c-3.25-3.11-7.41-6.12-12.71-8.52,0,0,0-.01,0-.01h-.01c-.29-.13-.59-.26-.89-.39-.26-.11-.53-.23-.79-.36-.03,0-.07-.03-.1-.05-3.68-1.66-7.08-3.76-10.07-6.23-4.18-3.47-9.29-8.12-12.17-11.97-1.44,3.09-3.59,9.08-2.09,14.96,1.12,4.38,4.12,8,8.94,10.7l1.82.86c4.41,2,10.32,4.44,16.64,5.73.41.08.83.19,1.27.35-.69-.15-1.41-.23-2.15-.23-1.86,0-3.59.5-5.08,1.39-2.66-.8-5.17-1.73-7.46-2.67-3.51,4.99-6.63,10.69-9.31,16.97-.33-.38-.54-.6-.61-.67-.53-.59-1.56-.59-2.12,0-.04.04-.13.13-.25.28,2.75-6.54,5.96-12.51,9.56-17.74-.59-.25-1.15-.5-1.69-.74l-1.94-.91c-5.62-3.17-9.09-7.38-10.41-12.58-2.44-9.55,3.29-18.93,3.53-19.31.26-.44.67-.71,1.29-.68.53.03,1,.32,1.23.76,1.53,2.94,6.09,7.65,12.85,13.29,2.53,2.08,5.34,3.88,8.4,5.35v.42c.11-.09.22-.18.33-.26.5.24,1.01.47,1.53.69s1.03.45,1.53.69c7.31,3.42,12.54,7.94,16.25,12.34h0c3.72,4.4,5.91,8.68,7.11,11.58,1.22-2.89,3.39-7.11,7.06-11.45,3.77-4.48,9.12-9.1,16.62-12.54.39-.18.79-.36,1.19-.53.61-.26,1.21-.54,1.8-.83h.01"/>
                  <path class="cls-6" d="m67.38,78.4c-.3.83-.47,1.41-.54,1.68-.15.54-.57.93-1.09,1.04-.2.05-.42.05-.64,0h-.02s-.01-.01-.02-.01c-.05-.01-.1-.03-.15-.06.19.03.39.02.59-.03.8-.21,1.24-1,1.03-1.77-.05-.19-.15-.54-.3-1.01.39.03.76.08,1.14.16Z"/>
                  <path class="cls-5" d="m92.59,50.09c-.2.1-.4.2-.6.29"/>
                  <path class="cls-6" d="m119.34,50.92c-1.33,5.2-4.8,9.4-10.32,12.52l-2.03.94c-.47.21-.95.42-1.45.64-.86.38-1.77.77-2.72,1.16-2.35.96-4.94,1.92-7.67,2.75-1.75.53-3.57,1.01-5.42,1.39-.32.06-.64.15-.94.26-.02.01-.04.01-.06.02-.03.01-.06.02-.1.02-.05.02-.1.04-.16.05-.09,0-.23.06-.59.18-.32.12-.44.14-.53.17-.12.04-.24.09-.37.14-1.89.72-4.18,1.9-6.67,3.88h0c-2.11,1.69-4.38,3.95-6.66,7.02-.23.31-.47.63-.7.96-.29.38-.73.59-1.18.59-.29,0-.58-.09-.85-.27-.64-.47-.79-1.35-.35-2.03.3-.42.6-.83.89-1.22,5.21-6.87,10.32-10.03,13.99-11.46.02-.01.04-.02.05-.02.25-.1.48-.18.71-.26.06-.06.32-.15.59-.21.35-.14.73-.26,1.14-.35.09-.03.17-.06.26-.08.01,0,.03-.02.05,0,.31-.11.62-.18.93-.23,4.84-1.01,9.48-2.7,13.38-4.33.14-.05.26-.11.39-.16,0,0,0-.01.01-.01,1-.42,1.94-.83,2.82-1.23l1.92-.89c4.7-2.64,7.7-6.26,8.81-10.64,1.5-5.88-.64-11.87-2.08-14.96-1.83,2.47-4.61,5.27-7.46,7.88v-3.97c3.17-3.05,5.34-5.61,6.31-7.47.24-.47.71-.76,1.24-.76.58-.03.99.23,1.29.67.23.39,5.97,9.73,3.53,19.32Z"/>
                </g>
                <path class="cls-6" d="m50.27,74.98c-.8-2.98-2.94-5.41-5.72-6.62-.37-.16-.75-.3-1.14-.42-.06-.02-.12-.03-.18-.05-.14-.04-.28-.07-.41-.1h-.02s-.06-.02-.09-.03c-.69-.15-1.41-.23-2.15-.23-1.86,0-3.59.5-5.08,1.39-2.98,1.74-4.98,4.98-4.98,8.66,0,5.55,4.53,10.05,10.06,10.05s10.05-4.5,10.05-10.05c0-.9-.12-1.77-.34-2.6Zm-9.71,9.77c-3.94,0-7.15-3.2-7.15-7.14s3.21-7.14,7.15-7.14,7.14,3.2,7.14,7.14-3.2,7.14-7.14,7.14Z"/>
              </g>
            </g>
            <path class="cls-6" d="m73.65,82.06c-.63-.75-1.37-1.41-2.19-1.97-1.21-.82-2.59-1.41-4.08-1.69-.38-.08-.75-.13-1.14-.16.15.47.25.82.3,1.01.21.77-.23,1.56-1.03,1.77-.2.05-.4.06-.59.03t-.01,0c-.67-.27-1.06-1-.87-1.71.06-.21.16-.58.33-1.1-.39.03-.76.08-1.13.16-1.5.28-2.89.87-4.1,1.7-.81.55-1.54,1.2-2.17,1.94-1.64,1.92-2.63,4.41-2.63,7.12,0,5.64,8.85,16.2,9.85,17.37.29.33.71.5,1.12.5s.82-.17,1.11-.5c1-1.2,9.85-11.75,9.85-17.37,0-2.7-.99-5.18-2.62-7.1Zm-8.34,21.24c-3.5-4.32-8.06-11.05-8.06-14.14,0-4.37,3.5-7.93,7.84-8.04h.02c.06-.01.14-.01.2-.01.15,0,.3,0,.44.01,4.24.23,7.61,3.75,7.61,8.04,0,3.38-5.08,10.44-8.05,14.14Z"/>
          </g>
          <path class="cls-6" d="m115.21,82.89h-.01c-.15-.18-.26-.3-.3-.34-.53-.59-1.56-.59-2.12,0-.07.07-.28.29-.61.67-2.9,3.35-15,18.49-15,37.04,0,2.43.21,4.8.57,7.09.2,1.22.44,2.41.72,3.58,2,8.47,5.98,15.66,9.24,20.5.68,1,1.33,1.91,1.91,2.7,1.73,2.31,2.99,3.68,3.17,3.87.27.3.65.48,1.06.48s.79-.18,1.06-.48c.64-.7,15.61-17.13,15.61-37.74,0-19.22-13.04-34.83-15.3-37.37Zm-1.37,71.91c-3.38-4.14-13.76-18.11-13.76-34.51s10.35-30.36,13.76-34.51c3.41,4.12,13.79,18.11,13.76,34.51,0,16.34-10.35,30.37-13.76,34.51Z"/>
          <g>
            <path class="cls-6" d="m18.71,83.22c-.33-.38-.54-.6-.61-.67-.53-.59-1.56-.59-2.12,0-.04.04-.13.13-.25.28-2.11,2.34-15.36,18.02-15.36,37.43,0,20.64,14.97,37.07,15.61,37.74.27.3.65.48,1.06.48.38,0,.76-.18,1.06-.48.18-.2,1.49-1.62,3.28-4.03.58-.8,1.22-1.7,1.9-2.7,3.23-4.83,7.14-11.94,9.13-20.3.28-1.17.52-2.37.72-3.59.37-2.3.58-4.68.58-7.12,0-18.53-12.1-33.69-15-37.04Zm1.67,67.11c-1.35,1.97-2.53,3.5-3.34,4.47-3.38-4.14-13.76-18.11-13.76-34.51s10.35-30.36,13.76-34.51c3.38,4.12,13.76,18.11,13.76,34.51,0,2.44-.23,4.82-.64,7.13v.02s-.01.04-.01.07c-.02.04-.02.08-.02.13-1.7,9.43-6.26,17.57-9.75,22.69Z"/>
            <path class="cls-6" d="m113.87,84.98c-.56,0-1.12-.32-1.32-.88-3-7.17-6.53-13.52-10.41-18.87-.47-.65-.32-1.56.32-2.03s1.56-.32,2.03.32c4.03,5.53,7.64,12.08,10.76,19.46.32.73-.03,1.59-.76,1.88-.26.09-.44.12-.62.12Z"/>
            <path class="cls-6" d="m18.71,83.22c-.13.29-.26.59-.38.88-.2.56-.73.89-1.32.89-.18,0-.38-.03-.56-.12-.73-.29-1.09-1.15-.79-1.88.02-.05.05-.11.07-.16.12-.15.21-.24.25-.28.56-.59,1.59-.59,2.12,0,.07.07.28.29.61.67Z"/>
          </g>
          <path class="cls-6" d="m65.28,168.61h0c-.41,0-.82-.18-1.09-.5l-33.72-39.42c-.53-.62-.44-1.53.15-2.03.62-.53,1.53-.44,2.03.15l32.63,38.16,32.92-38.16c.53-.62,1.44-.68,2.03-.15.62.53.68,1.44.15,2.03l-33.98,39.42c-.29.32-.68.5-1.12.5Z"/>
          <path class="cls-6" d="m65.17,219c-.29,0-.59-.09-.85-.26-4.23-3.03-8.23-8.73-12.11-14.23-1.5-2.12-2.94-4.17-4.38-6.03-.5-.65-.38-1.53.26-2.03.62-.47,1.53-.38,2.03.26,1.44,1.88,2.94,3.97,4.44,6.14,3.47,4.91,7.03,9.99,10.58,12.88,3.53-2.88,7.11-7.91,10.58-12.76,1.56-2.18,3.09-4.32,4.59-6.26.5-.62,1.41-.73,2.03-.26.62.5.73,1.41.26,2.03-1.47,1.88-2.97,4-4.5,6.14-3.88,5.47-7.91,11.11-12.08,14.08-.26.21-.56.29-.85.29Z"/>
          <path class="cls-6" d="m96.18,177.2c-.26,0-.5-.06-.73-.21-.68-.41-.91-1.29-.5-2l2.97-4.94c2.47-4.29,6.2-11.14,9.97-18.99l.18-.35c.24-.53.73-.88,1.32-.88.79,0,1.44.62,1.44,1.44,0,.24-.06.47-.15.68l-.18.38c-3.82,7.97-7.58,14.84-10.08,19.22l-3,4.97c-.26.41-.73.68-1.23.68Z"/>
          <path class="cls-6" d="m34.62,177.2c-.5,0-1-.26-1.26-.73l-3.65-6.32c-5.41-9.91-9.38-18.37-9.41-18.43-.35-.73-.03-1.59.71-1.91.71-.32,1.59-.03,1.91.71.03.09,3.97,8.47,9.32,18.25l3.62,6.29c.41.71.15,1.59-.53,1.97-.21.09-.47.18-.71.18Z"/>
        </g>
        <g>
          <g>
            <path class="cls-6" d="m115.32,174.53c-.06-.04-.13-.07-.19-.1-.17-.07-.36-.11-.56-.11H19.04c-2.47,0-4.47,2-4.47,4.47v15.81c0,2.47,2,4.47,4.47,4.47h95.5c.09,0,.18-.01.26-.02.04-.01.08-.01.12-.03.08-.02.16-.04.24-.08.5-.22.85-.73.85-1.31v-21.87c0-.52-.28-.98-.69-1.23Zm-96.28,21.66c-.88,0-1.59-.71-1.59-1.59v-15.81c0-.88.71-1.59,1.59-1.59v.03h94.09v18.96H19.04Z"/>
            <path class="cls-6" d="m114.55,199.07c-.5,0-1-.26-1.26-.73-.41-.71-.15-1.59.53-1.97l16.9-9.7-16.87-9.67c-.71-.41-.94-1.29-.53-1.97.38-.71,1.26-.94,1.97-.53l19.08,10.94c.44.26.73.73.73,1.26s-.26,1-.73,1.26l-19.08,10.94c-.24.12-.47.18-.73.18Z"/>
          </g>
          <path class="cls-6" d="m29.95,199.07c-.79,0-1.44-.65-1.44-1.44v-21.87c0-.79.65-1.44,1.44-1.44s1.44.65,1.44,1.44v21.87c0,.79-.65,1.44-1.44,1.44Z"/>
        </g>
      </g>
      <path class="cls-1" d="m38.55,50.27v.42c.11-.09.22-.18.33-.26-.11-.05-.22-.1-.33-.16Z"/>
      <path class="cls-4" d="m38.88,50.43c-.11.08-.22.17-.33.26v-.42l.33.16Z"/>
      <path class="cls-2" d="m109.04,55.89h-9.29c-2.12,0-3.3-2.39-2.1-4.07l1.34-2.14h.01s2.81-4.53,2.81-4.53v-22.15l-35.58,14.64c-.65.27-1.35.25-1.95,0L24.57,21.3c-2.14-.88-2.1-3.9,0-4.76L64.28.19c.65-.26,1.35-.24,1.95,0l39.72,16.35c1.6.66,2.09,2.67,1.02,3.99v24.62l4.25,6.8c1.08,1.73-.2,3.94-2.18,3.94Z"/>
      <path class="cls-2" d="m92.59,29.57v20.52c-.2.1-.4.2-.6.29h-.01c-.59.29-1.19.57-1.8.83-.4.17-.8.35-1.19.53-7.5,3.44-12.85,8.06-16.62,12.54-1.99.39-4.17.69-6.55.87-.14.02-.29.02-.44.01-2.63-.2-5.02-.55-7.18-1.01h-.01c-3.71-4.4-8.94-8.92-16.25-12.34-.5-.24-1.01-.47-1.53-.69-.52-.22-1.03-.45-1.53-.69-.11-.05-.22-.1-.33-.16v-20.44l24.76,10.2c1.28.51,2.63.51,3.9-.01l25.38-10.45Z"/>
      <polygon class="cls-7" points="129.47 182.5 136.47 186.5 129.47 190.5 129.47 182.5"/>
      <g>
        <path class="cls-3" d="m137.07,106.1h10.16c3.53,0,6.11.82,7.73,2.46,1.62,1.64,2.43,4.17,2.43,7.58v2.68c0,4.53-1.5,7.4-4.49,8.61v.12c1.66.5,2.84,1.52,3.52,3.06.68,1.54,1.03,3.6,1.03,6.17v7.67c0,1.25.04,2.26.12,3.03.08.77.29,1.53.63,2.27h-6.98c-.25-.7-.41-1.37-.5-1.99-.08-.62-.12-1.75-.12-3.37v-7.98c0-1.99-.32-3.39-.97-4.17-.65-.79-1.76-1.18-3.34-1.18h-2.37v18.7h-6.86v-43.64Zm9.35,18.7c1.37,0,2.4-.35,3.09-1.06.68-.71,1.03-1.89,1.03-3.55v-3.37c0-1.58-.28-2.72-.84-3.43-.56-.71-1.44-1.06-2.65-1.06h-3.12v12.47h2.49Z"/>
        <path class="cls-3" d="m162.2,106.1h18.7v6.23h-11.85v11.53h9.41v6.23h-9.41v13.41h11.85v6.23h-18.7v-43.64Zm9.97-10.1h7.48l-6.67,7.17h-5.18l4.36-7.17Z"/>
        <path class="cls-3" d="m186.32,147.53c-1.7-1.89-2.56-4.6-2.56-8.14v-2.5h6.49v2.99c0,2.83,1.18,4.24,3.55,4.24,1.16,0,2.05-.34,2.65-1.03.6-.68.9-1.8.9-3.33,0-1.83-.42-3.44-1.25-4.83-.83-1.39-2.37-3.07-4.61-5.02-2.83-2.49-4.8-4.75-5.92-6.76s-1.68-4.29-1.68-6.83c0-3.45.87-6.12,2.62-8.01,1.75-1.89,4.28-2.84,7.61-2.84s5.77.95,7.45,2.84c1.68,1.89,2.53,4.6,2.53,8.14v1.81h-6.48v-2.24c0-1.5-.29-2.59-.87-3.27s-1.44-1.03-2.56-1.03c-2.28,0-3.43,1.39-3.43,4.18,0,1.58.42,3.06,1.28,4.42.85,1.37,2.4,3.04,4.64,4.99,2.87,2.49,4.84,4.76,5.92,6.8s1.62,4.43,1.62,7.17c0,3.57-.88,6.32-2.65,8.23-1.77,1.91-4.33,2.87-7.7,2.87s-5.84-.95-7.54-2.84Z"/>
        <path class="cls-3" d="m208.15,106.1h18.7v6.23h-11.85v11.53h9.41v6.23h-9.41v13.41h11.85v6.23h-18.7v-43.64Z"/>
        <path class="cls-3" d="m236.08,106.1h9.29l7.11,43.64h-6.86l-1.25-8.66v.12h-7.79l-1.25,8.54h-6.36l7.11-43.64Zm7.48,29.18l-3.06-21.57h-.12l-2.99,21.57h6.17Z"/>
        <path class="cls-3" d="m258.02,147.53c-1.75-1.89-2.62-4.6-2.62-8.14v-33.29h6.86v33.79c0,1.5.3,2.58.9,3.24s1.46,1,2.59,1,1.99-.33,2.59-1c.6-.66.9-1.75.9-3.24v-33.79h6.61v33.29c0,3.53-.87,6.25-2.62,8.14-1.75,1.89-4.28,2.84-7.61,2.84s-5.86-.95-7.6-2.84Z"/>
      </g>
      <g>
        <path class="cls-3" d="m137.07,163.63h18.7v6.23h-11.85v11.53h9.41v6.23h-9.41v13.41h11.85v6.23h-18.7v-43.64Zm9.97-10.1h7.48l-6.67,7.17h-5.18l4.36-7.17Z"/>
        <path class="cls-3" d="m165.06,169.87h-7.17v-6.23h21.2v6.23h-7.17v37.41h-6.86v-37.41Z"/>
        <path class="cls-3" d="m184.77,205.06c-1.75-1.89-2.62-4.6-2.62-8.14v-33.29h6.86v33.79c0,1.5.3,2.58.9,3.24s1.46,1,2.59,1,1.99-.33,2.59-1c.6-.66.9-1.75.9-3.24v-33.79h6.61v33.29c0,3.53-.87,6.25-2.62,8.14-1.75,1.89-4.28,2.84-7.61,2.84s-5.86-.95-7.6-2.84Z"/>
        <path class="cls-3" d="m207.46,163.63h10.47c3.41,0,5.96.91,7.67,2.74s2.56,4.51,2.56,8.04v22.07c0,3.53-.85,6.22-2.56,8.04-1.7,1.83-4.26,2.74-7.67,2.74h-10.47v-43.64Zm10.35,37.41c1.12,0,1.99-.33,2.59-1,.6-.66.9-1.75.9-3.24v-22.7c0-1.5-.3-2.57-.9-3.24-.6-.66-1.47-1-2.59-1h-3.49v31.17h3.49Z"/>
        <path class="cls-3" d="m232.77,163.63h6.86v43.64h-6.86v-43.64Z"/>
        <path class="cls-3" d="m250.04,163.63h9.29l7.11,43.64h-6.86l-1.25-8.66v.12h-7.79l-1.25,8.54h-6.36l7.11-43.64Zm7.48,29.18l-3.06-21.57h-.12l-2.99,21.57h6.17Z"/>
        <path class="cls-3" d="m269.74,163.63h8.6l6.67,26.12h.12v-26.12h6.11v43.64h-7.05l-8.23-31.86h-.12v31.86h-6.11v-43.64Z"/>
        <path class="cls-3" d="m301.72,169.87h-7.17v-6.23h21.2v6.23h-7.17v37.41h-6.86v-37.41Z"/>
      </g>
    </g>
  </g>
</svg>